<?xml version="1.0" standalone="no"?>
<!DOCTYPE svg PUBLIC "-//W3C//DTD SVG 20010904//EN" "http://www.w3.org/TR/2001/REC-SVG-20010904/DTD/svg10.dtd">
<!-- Created using Krita: http://krita.org -->
<svg xmlns="http://www.w3.org/2000/svg" 
    xmlns:xlink="http://www.w3.org/1999/xlink"
    xmlns:krita="http://krita.org/namespaces/svg/krita"
    xmlns:sodipodi="http://sodipodi.sourceforge.net/DTD/sodipodi-0.dtd"
    width="2999.63pt"
    height="2999.63pt"
    viewBox="0 0 2999.63 2999.63">
<defs>
  <linearGradient id="gradient0" gradientUnits="objectBoundingBox" x1="1.06374298310861" y1="0.463364290311632" x2="-0.00114548700879971" y2="0.131783541264113" spreadMethod="pad">
   <stop stop-color="#d21057" offset="0" stop-opacity="1"/>
   <stop stop-color="#f26da2" offset="1" stop-opacity="1"/>
  </linearGradient>
 </defs>
<path id="shape0" transform="translate(1396.54051103997, 352.356760196774)" fill="#fcd7e9" fill-rule="evenodd" stroke="#000000" stroke-opacity="0" stroke-width="0.999876746748237" stroke-linecap="square" stroke-linejoin="bevel" d="M0 668.403C77.5514 574.703 319.829 293.91 421.235 243.07C501.792 202.682 677.251 156.718 892.177 177.078C1026.8 189.831 1163.37 287.626 1174.14 273.066C1181.1 263.666 1043.04 152.707 1061.66 117.085C1070.08 100.97 1147.97 121.795 1148.65 118.585C1154.12 92.5072 926.269 5.01487 869.18 1.59963C793.473 -2.92945 638.347 -1.8192 461.73 60.0924C277.018 124.842 142.357 221.415 87.2766 274.066C-4.87217 362.15 -6.11988 539.229 9.01457 553.866C11.1747 555.955 30.7842 537.933 34.1582 540.783C36.1359 542.454 12.1442 612.908 0 668.403Z"/><path id="shape1" transform="translate(118.024340486802, 666.468701564067)" fill="#fcd7e9" fill-rule="evenodd" stroke="#000000" stroke-opacity="0" stroke-width="0.999876746748237" stroke-linecap="square" stroke-linejoin="bevel" d="M161.16 206.17C153.178 213.704 135.803 203.47 132.614 205.64C83.1086 239.323 78.319 403.904 28.9576 533.383C22.6832 549.842 11.8493 559.062 9.70992 566.129C2.98328 588.349 -4.56075 630.742 3.46069 684.865C10.2532 730.695 46.5566 794.762 57.454 846.345C59.9256 858.044 60.3294 866.817 61.9122 871.652C72.7751 904.839 100.953 962.252 139.944 1029.82C168.198 1078.79 259.036 1099.5 253.93 1086.82C250.042 1077.16 179.271 976.865 212.154 924.325C217.163 916.322 269.703 1012.67 268.715 985.129C268.164 969.753 230.718 811.771 265.428 759.856C301.699 705.606 242.625 517.039 276.814 367.018C341.284 84.1183 390.433 23.3621 380.914 2.9488C368.112 -24.5039 244.407 148.868 204.73 144.836C186.761 143.011 194.016 175.161 161.16 206.17Z"/><path id="shape2" transform="translate(197.0137449093, 854.123613272711)" fill="#fbd0e4" fill-rule="evenodd" stroke="#000000" stroke-opacity="0" stroke-width="0.999876746748237" stroke-linecap="square" stroke-linejoin="bevel" d="M1296.55 1908.04C1315.4 1871.67 1220.55 1702.76 905.23 1452.53C843.373 1403.44 656.725 1211.99 558.441 1058.47C491.579 954.042 340.815 781.467 275.975 502.543C181.865 97.702 279.535 56.0618 268.929 14.7693C252.335 -49.8345 198.708 116.653 157.943 146.253C140.947 158.594 84.7491 113.779 77.7024 118.007C65.0329 125.607 74.5102 217.235 50.0765 275.174C45.4609 286.119 25.9112 271.278 18.3822 283.57C-3.90185 319.95 27.2557 353.802 17.2574 407.055C13.3778 427.718 -0.412887 440.716 0.00949486 449.549C8.51299 627.386 57.0493 831.726 58.9142 835.133C133.749 971.851 400.903 1293.51 691.003 1474.8C1111.03 1737.29 1294.26 1912.46 1296.55 1908.04Z"/><path id="shape3" transform="translate(1431.15492477092, 241.397078139257)" fill="#fbc9e2" fill-rule="evenodd" stroke="#000000" stroke-opacity="0" stroke-width="0.999876746748237" stroke-linecap="square" stroke-linejoin="bevel" d="M669.047 0.403626C694.653 -2.15174 769.702 7.44425 845.095 28.6844C868.379 35.2442 949.468 27.8593 1088.66 101.507C1219.27 170.612 1334.56 301.916 1318.01 336.782C1315.66 341.723 1304.89 341.056 1302.76 346.53C1295.14 366.094 1322.86 413.307 1320.57 456.078C1318.57 493.276 1351.87 592.523 1305.01 643.085C1272.64 678.005 1195.42 600.308 1177.04 663.588C1165.34 703.891 1084.02 959.63 1004.54 979.452C989.473 983.211 980.252 853.106 976.247 819.839C966.757 741.017 939.704 564.861 864.538 502.388C770.087 423.885 683.651 347.741 673.086 312.035C628.219 160.407 867.634 157.162 858.175 143.222C851.689 133.663 675.055 125.84 362.624 261.541C204.236 330.335 93.3423 579.875 5.50892 578.746C-10.4119 578.541 -6.64465 381.232 227.141 202.548C300.03 146.839 423.567 86.9801 496.108 65.5651C516.033 59.6828 584.881 8.80291 669.047 0.403626Z"/><path id="shape4" transform="translate(1480.32209758274, 515.981971319173)" fill="#fabeda" fill-rule="evenodd" stroke="#000000" stroke-opacity="0" stroke-width="0.999876746748237" stroke-linecap="square" stroke-linejoin="bevel" d="M4.41915 2404.72C160.807 2378.74 392.327 2017.85 540.679 1839.73C676.374 1676.8 927.531 1376.57 1214.85 865.348C1334.72 652.046 1334.7 573.784 1334.08 530.389C1333.57 494.548 1422.37 270.725 1256.68 2.57274C1252.22 -4.64755 1247.31 4.02221 1247.71 19.9389C1248.13 36.5296 1259.95 301.314 1185.14 341.633C1135.59 368.341 1047.91 397.099 1000.87 458.898C970.409 498.924 933.854 613.751 933.88 629.377C934.06 735.837 903.338 829.033 869.458 862.353C857.515 874.098 812.183 963.943 794.514 1010.47C729.388 1181.97 573.429 1409.22 480.686 1544.26C338.233 1751.69 207.376 2064.56 153.335 2120.32C100.404 2174.93 -25.0314 2409.61 4.41915 2404.72Z"/><path id="shape5" transform="translate(368.642767917484, 501.845494836514)" fill="#d11e55" fill-rule="evenodd" stroke="#000000" stroke-opacity="0" stroke-width="0.999876746748237" stroke-linecap="square" stroke-linejoin="bevel" d="M1095.86 592.002C643.303 -208.674 13.7586 150.342 144.294 785.996C185.949 988.836 437.525 1371.1 578.49 1542.4C688.633 1676.25 739.317 1748.16 730.847 1755.63C726.128 1759.79 243.368 1493.41 41.7885 860.945C-69.169 512.81 38.3349 75.5469 394.263 6.59184C627.683 -38.6293 913.61 147.992 1095.86 592.002Z"/><path id="shape6" transform="translate(457.155785712864, 417.918168747473)" fill="#ff3e87" fill-rule="evenodd" stroke="#000000" stroke-opacity="0" stroke-width="0.999876746748237" stroke-linecap="square" stroke-linejoin="bevel" d="M985.666 897.17C1244.85 373.914 1441.72 206.067 1768.57 293.994C2086.64 379.56 2092.15 613.106 2016.54 877.922C1939.1 1149.14 1730.54 1553.62 1440.61 1931.79C1905.89 1525.18 2147.19 1115.23 2248.51 797.932C2400.49 321.991 2063.49 37.1685 1779.85 2.75851C1496.22 -31.6515 1188.25 258.31 992.941 735.584C833.144 362.777 527.045 165.784 307.25 202.005C55.3304 243.52 -50.5141 576.149 22.785 951.913C109.329 1395.57 544.672 1781.76 964.669 2071.77C687.81 1805.4 494.5 1610.76 384.74 1487.85C163.813 1240.44 45.5758 989.349 41.6466 724.272C36.9772 409.259 186.282 213.455 418.736 242C675.261 273.502 900.851 598.351 985.666 897.17Z"/><path id="shape7" transform="translate(267.134741620957, 482.010672250017)" fill="url(#gradient0)" fill-rule="evenodd" stroke="#000000" stroke-opacity="0" stroke-width="0.999876746748237" stroke-linecap="square" stroke-linejoin="bevel" d="M1169.56 2324.02C1697.19 1729.87 2036.83 1384.25 2231.81 1114.67C2319.76 993.057 2382.21 879.073 2404.04 753.212C2382.26 834.492 2374.59 853.577 2356.04 887.821C2376.32 848.075 2411.58 735.756 2411.94 620.056C2407.43 676.096 2407.99 665.116 2403.63 698.005C2406.04 685.184 2406.95 664.64 2406.11 647.983C2402.86 680.556 2389.55 760.226 2365.98 820.673C2385.74 765.638 2406.84 661.937 2401.69 584.882C2401.24 596.915 2400.61 604.561 2399.04 615.354C2399.74 584.096 2397.19 563.267 2393.29 544.738C2396.42 562.665 2397.95 612.246 2395.04 631.227C2396.15 543.93 2369.18 446.561 2345.29 401.88C2410.97 611.043 2381.57 800.459 2264.58 981.871C2207.78 1069.97 2163.95 1158.87 1818.57 1520.98C1688.05 1657.83 1622.88 1688 1175.19 2179.66C641.435 1705.82 537.178 1588.56 442.778 1471.75C344.244 1349.82 76.9861 1043.52 106.819 603.855C135.672 178.634 353.092 37.6002 540.989 34.8207C730.561 32.0164 1002.29 135.663 1191.81 509.492C913.264 -60.1879 405.711 -113.485 195.558 201.655C288.677 35.2347 576.368 -100.945 885.723 116.166C557.731 -117.993 265.753 48.1416 118.191 209.455C-53.1445 396.756 -66.5024 786.693 269.316 1277.58C476.778 1580.85 854.778 1993.93 1169.56 2324.02Z"/>
</svg>
