<svg xmlns="http://www.w3.org/2000/svg" viewBox="0 0 2999.63 2999.63"><defs><linearGradient id="a" x1="1.064" x2="-.001" y1=".463" y2=".132" gradientUnits="objectBoundingBox" spreadMethod="pad"><stop offset="0" stop-color="#d21057"/><stop offset="1" stop-color="#f26da2"/></linearGradient></defs><path fill="#fcd7e9" fill-rule="evenodd" d="M1396.54 1020.76c77.552-93.7 319.83-374.493 421.236-425.333 80.557-40.388 256.016-86.352 470.942-65.992 134.623 12.753 271.193 110.548 281.963 95.988 6.96-9.4-131.1-120.36-112.48-155.981 8.42-16.115 86.31 4.71 86.99 1.5 5.47-26.078-222.381-113.57-279.47-116.986-75.707-4.529-230.833-3.418-407.45 58.493-184.712 64.75-319.373 161.323-374.454 213.974-92.149 88.084-93.396 265.163-78.262 279.8 2.16 2.089 21.77-15.933 25.144-13.083 1.977 1.67-22.014 72.125-34.158 127.62zM279.184 872.639c-7.982 7.534-25.357-2.7-28.546-.53-49.505 33.683-54.295 198.264-103.656 327.743-6.274 16.459-17.108 25.679-19.248 32.746-6.726 22.22-14.27 64.613-6.249 118.736 6.793 45.83 43.096 109.897 53.993 161.48 2.472 11.699 2.876 20.472 4.459 25.307 10.862 33.187 39.04 90.6 78.031 158.168 28.254 48.97 119.092 69.68 113.986 57-3.888-9.66-74.659-109.955-41.776-162.495 5.01-8.003 57.55 88.345 56.561 60.804-.55-15.376-37.997-173.358-3.287-225.273 36.271-54.25-22.803-242.817 11.386-392.838 64.47-282.9 113.62-343.656 104.1-364.07-12.802-27.452-136.507 145.92-176.184 141.888-17.969-1.825-10.714 30.325-43.57 61.334z"/><path fill="#fbd0e4" fill-rule="evenodd" d="M1493.564 2762.164c18.85-36.37-76-205.28-391.32-455.51-61.857-49.09-248.505-240.54-346.79-394.06-66.861-104.428-217.625-277.003-282.465-555.927-94.11-404.841 3.56-446.482-7.046-487.774-16.594-64.604-70.221 101.884-110.986 131.484-16.996 12.34-73.194-32.474-80.24-28.246-12.67 7.6-3.193 99.228-27.627 157.167-4.615 10.945-24.165-3.896-31.694 8.396-22.284 36.38 8.873 70.232-1.125 123.485-3.88 20.663-17.67 33.66-17.248 42.494 8.504 177.837 57.04 382.177 58.905 385.584 74.835 136.718 341.989 458.377 632.089 639.667 420.027 262.49 603.257 437.66 605.547 433.24z"/><path fill="#fbc9e2" fill-rule="evenodd" d="M2100.202 241.8c25.606-2.555 100.655 7.041 176.048 28.281 23.284 6.56 104.373-.825 243.565 72.823 130.61 69.105 245.9 200.41 229.35 235.275-2.35 4.941-13.12 4.274-15.25 9.748-7.62 19.564 20.1 66.777 17.81 109.548-2 37.198 31.3 136.445-15.56 187.007-32.37 34.92-109.59-42.777-127.97 20.503-11.7 40.303-93.02 296.042-172.5 315.864-15.067 3.76-24.288-126.346-28.293-159.613-9.49-78.822-36.543-254.978-111.71-317.45-94.45-78.504-180.886-154.648-191.451-190.354-44.867-151.628 194.548-154.873 185.089-168.813-6.486-9.559-183.12-17.382-495.551 118.32-158.388 68.793-269.282 318.333-357.115 317.204-15.921-.205-12.154-197.514 221.632-376.198 72.889-55.709 196.426-115.568 268.967-136.983 19.925-5.882 88.773-56.762 172.939-65.161z"/><path fill="#fabeda" fill-rule="evenodd" d="M1484.741 2920.702c156.388-25.98 387.908-386.87 536.26-564.99 135.695-162.93 386.852-463.16 674.171-974.382 119.87-213.302 119.85-291.564 119.23-334.959-.51-35.841 88.29-259.664-77.4-527.816-4.46-7.22-9.37 1.45-8.97 17.366.42 16.59 12.24 281.375-62.57 321.694-49.55 26.708-137.23 55.466-184.27 117.265-30.46 40.026-67.016 154.853-66.99 170.479.18 106.46-30.542 199.656-64.422 232.976-11.943 11.745-57.275 101.59-74.944 148.117-65.126 171.5-221.085 398.75-313.828 533.79-142.453 207.43-273.31 520.3-327.35 576.06-52.932 54.61-178.367 289.29-148.917 284.4z"/><path fill="#d11e55" fill-rule="evenodd" d="M1464.503 1093.847C1011.946 293.171 382.4 652.187 512.937 1287.841c41.655 202.84 293.23 585.104 434.196 756.404 110.143 133.85 160.827 205.76 152.357 213.23-4.72 4.16-487.48-262.22-689.059-894.685-110.957-348.135-3.453-785.398 352.475-854.353 233.42-45.22 519.347 141.4 701.597 585.41z"/><path fill="#ff3e87" fill-rule="evenodd" d="M1442.822 1315.088c259.184-523.256 456.054-691.103 782.904-603.176 318.07 85.566 323.58 319.112 247.97 583.928-77.44 271.218-286 675.698-575.93 1053.868 465.28-406.61 706.58-816.56 807.9-1133.858 151.98-475.94-185.02-760.763-468.66-795.173-283.63-34.41-591.6 255.551-786.91 732.825-159.796-372.807-465.895-569.8-685.69-533.579-251.92 41.515-357.764 374.144-284.465 749.908 86.544 443.657 521.887 829.847 941.884 1119.857-276.86-266.37-470.17-461.01-579.93-583.92-220.926-247.41-339.163-498.5-343.093-763.578-4.669-315.013 144.636-510.817 377.09-482.272 256.525 31.502 482.115 356.351 566.93 655.17z"/><path fill="url(#a)" fill-rule="evenodd" d="M1169.56 2324.02c527.63-594.15 867.27-939.77 1062.25-1209.35 87.95-121.613 150.4-235.597 172.23-361.458-21.78 81.28-29.45 100.365-48 134.609 20.28-39.746 55.54-152.065 55.9-267.765-4.51 56.04-3.95 45.06-8.31 77.949 2.41-12.821 3.32-33.365 2.48-50.022-3.25 32.573-16.56 112.243-40.13 172.69 19.76-55.035 40.86-158.736 35.71-235.791-.45 12.033-1.08 19.679-2.65 30.472.7-31.258-1.85-52.087-5.75-70.616 3.13 17.927 4.66 67.508 1.75 86.489 1.11-87.297-25.86-184.666-49.75-229.347 65.68 209.163 36.28 398.579-80.71 579.991-56.8 88.099-100.63 176.999-446.01 539.109-130.52 136.85-195.69 167.02-643.38 658.68-533.755-473.84-638.012-591.1-732.412-707.91-98.534-121.93-365.792-428.23-335.959-867.895C135.672 178.634 353.092 37.6 540.989 34.821c189.572-2.805 461.301 100.842 650.821 474.671-278.546-569.68-786.099-622.977-996.252-307.837 93.119-166.42 380.81-302.6 690.165-85.489-327.992-234.159-619.97-68.024-767.532 93.289C-53.144 396.756-66.502 786.693 269.316 1277.58c207.462 303.27 585.462 716.35 900.244 1046.44z" transform="translate(267.135 482.01)"/></svg>